<?xml version="1.0" encoding="iso-8859-1"?>
<!-- Generator: Adobe Illustrator 19.0.0, SVG Export Plug-In . SVG Version: 6.00 Build 0)  -->
<svg version="1.1" id="Layer_1" xmlns="http://www.w3.org/2000/svg" xmlns:xlink="http://www.w3.org/1999/xlink" x="0px" y="0px"
	 viewBox="0 0 512 512" style="enable-background:new 0 0 512 512;" xml:space="preserve">
<rect x="102.079" y="200.418" style="fill:#EBC9A0;" width="307.841" height="205.228"/>
<g>
	<rect x="136.284" y="200.418" style="fill:#FAEBC8;" width="34.205" height="205.228"/>
	<rect x="273.102" y="200.418" style="fill:#FAEBC8;" width="34.205" height="205.228"/>
	<rect x="341.511" y="200.418" style="fill:#FAEBC8;" width="34.205" height="205.228"/>
	<rect x="204.693" y="200.418" style="fill:#FAEBC8;" width="34.205" height="205.228"/>
	<rect x="67.875" y="200.418" style="fill:#FAEBC8;" width="34.205" height="205.228"/>
	<rect x="409.921" y="200.418" style="fill:#FAEBC8;" width="34.205" height="205.228"/>
</g>
<rect x="42.221" y="405.645" style="fill:#F5DCB4;" width="427.557" height="34.205"/>
<rect x="16.568" y="439.85" style="fill:#FAEBC8;" width="478.864" height="34.205"/>
<rect x="42.221" y="166.213" style="fill:#F5DCB4;" width="427.557" height="34.205"/>
<polygon style="fill:#FAEBC8;" points="503.983,166.213 8.017,166.213 8.017,140.56 256,37.946 503.983,140.56 "/>
<path d="M507.049,133.152L259.066,30.538c-1.962-0.812-4.168-0.812-6.13,0L4.952,133.152C1.955,134.392,0,137.316,0,140.56v25.653
	c0,4.427,3.589,8.017,8.017,8.017h26.188v26.188c0,4.427,3.589,8.017,8.017,8.017h17.637v189.194H42.221
	c-4.427,0-8.017,3.589-8.017,8.017v26.188H16.568c-4.427,0-8.017,3.589-8.017,8.017v34.205c0,4.427,3.589,8.017,8.017,8.017h478.864
	c4.427,0,8.017-3.589,8.017-8.017V439.85c0-4.427-3.589-8.017-8.017-8.017h-17.637v-26.188c0-4.427-3.589-8.017-8.017-8.017h-17.637
	V208.434h17.637c4.427,0,8.017-3.589,8.017-8.017V174.23h26.188c4.427,0,8.017-3.589,8.017-8.017V140.56
	C512,137.316,510.045,134.392,507.049,133.152z M75.891,208.434h18.171v189.194H75.891V208.434z M128.267,208.434v189.194h-18.171
	V208.434H128.267z M162.472,208.434v189.194h-18.171V208.434H162.472z M196.676,208.434v189.194h-18.171V208.434H196.676z
	 M230.881,208.434v189.194H212.71V208.434H230.881z M265.086,208.434v189.194h-18.171V208.434H265.086z M299.29,208.434v189.194
	h-18.171V208.434H299.29z M333.495,208.434v189.194h-18.171V208.434H333.495z M367.699,208.434v189.194h-18.171V208.434H367.699z
	 M401.904,208.434v189.194h-18.171V208.434H401.904z M487.415,466.038H24.585v-18.171h462.831V466.038z M461.762,431.833H50.238
	v-18.171h411.524V431.833z M436.109,397.628h-18.171V208.434h18.171V397.628z M461.762,192.401H50.238V174.23h411.524V192.401z
	 M495.967,158.196H16.033v-12.278L256,46.622l239.967,99.296V158.196z"/>
<g>
</g>
<g>
</g>
<g>
</g>
<g>
</g>
<g>
</g>
<g>
</g>
<g>
</g>
<g>
</g>
<g>
</g>
<g>
</g>
<g>
</g>
<g>
</g>
<g>
</g>
<g>
</g>
<g>
</g>
</svg>
