<?xml version="1.0" encoding="utf-8"?>
<!-- Generator: Adobe Illustrator 24.1.1, SVG Export Plug-In . SVG Version: 6.00 Build 0)  -->
<svg version="1.1" id="Layer_1" xmlns="http://www.w3.org/2000/svg" xmlns:xlink="http://www.w3.org/1999/xlink" x="0px" y="0px"
	 viewBox="0 0 500 500" style="enable-background:new 0 0 500 500;" xml:space="preserve">
<style type="text/css">
	.st0{clip-path:url(#SVGID_2_);}
	.st1{fill:#DB4437;}
	.st2{fill:url(#SVGID_3_);}
	.st3{clip-path:url(#SVGID_5_);}
	.st4{fill:#3E2723;fill-opacity:0.15;}
	.st5{clip-path:url(#SVGID_7_);}
	.st6{fill:#0F9D58;}
	.st7{fill:url(#SVGID_8_);}
	.st8{clip-path:url(#SVGID_10_);}
	.st9{fill:#263238;fill-opacity:0.15;}
	.st10{clip-path:url(#SVGID_12_);}
	.st11{clip-path:url(#SVGID_14_);}
	.st12{fill:#FFCD40;}
	.st13{fill:url(#SVGID_15_);}
	.st14{clip-path:url(#SVGID_17_);}
	.st15{fill:url(#SVGID_18_);}
	.st16{clip-path:url(#SVGID_20_);}
	.st17{clip-path:url(#SVGID_22_);}
	.st18{fill:url(#SVGID_23_);}
	.st19{clip-path:url(#SVGID_25_);}
	.st20{fill:url(#SVGID_26_);}
	.st21{clip-path:url(#SVGID_28_);}
	.st22{clip-path:url(#SVGID_30_);}
	.st23{fill:url(#SVGID_31_);}
	.st24{clip-path:url(#SVGID_33_);}
	.st25{fill:url(#SVGID_34_);}
	.st26{clip-path:url(#SVGID_36_);}
	.st27{fill:url(#SVGID_37_);}
	.st28{clip-path:url(#SVGID_39_);}
	.st29{fill:#F1F1F1;}
	.st30{fill:#4285F4;}
	.st31{clip-path:url(#SVGID_41_);}
	.st32{fill:#3E2723;fill-opacity:0.2;}
	.st33{fill:#FFFFFF;fill-opacity:0.1;}
	.st34{opacity:0.1;fill:#3E2723;enable-background:new    ;}
	.st35{fill:#FFFFFF;fill-opacity:0.2;}
	.st36{clip-path:url(#SVGID_43_);}
	.st37{fill:none;}
	.st38{clip-path:url(#SVGID_45_);}
	.st39{opacity:0.99;fill:#424242;enable-background:new    ;}
	.st40{fill:#FFFFFF;}
</style>
<g>
	<g>
		<g>
			<defs>
				<circle id="SVGID_1_" cx="250" cy="250" r="250"/>
			</defs>
			<clipPath id="SVGID_2_">
				<use xlink:href="#SVGID_1_"  style="overflow:visible;"/>
			</clipPath>
			<g class="st0">
				<polygon class="st1" points="39.75,0 39.75,306.84 151.56,306.84 250,136.43 500,136.43 500,0 				"/>
				
					<linearGradient id="SVGID_3_" gradientUnits="userSpaceOnUse" x1="545.5716" y1="-1072.7809" x2="1142.1233" y2="-724.2751" gradientTransform="matrix(0.25 0 0 -0.25 -75.75 -77.75)">
					<stop  offset="0" style="stop-color:#A52714;stop-opacity:0.6"/>
					<stop  offset="0.66" style="stop-color:#A52714;stop-opacity:0"/>
				</linearGradient>
				<polygon class="st2" points="39.75,0 39.75,306.84 151.56,306.84 250,136.43 500,136.43 500,0 				"/>
			</g>
		</g>
	</g>
	<g>
		<g>
			<defs>
				<circle id="SVGID_4_" cx="250" cy="250" r="250"/>
			</defs>
			<clipPath id="SVGID_5_">
				<use xlink:href="#SVGID_4_"  style="overflow:visible;"/>
			</clipPath>
			<g class="st3">
				<polygon class="st4" points="154.3,305.76 41.11,111.82 39.45,114.55 151.86,307.23 				"/>
			</g>
		</g>
	</g>
	<g>
		<g>
			<defs>
				<circle id="SVGID_6_" cx="250" cy="250" r="250"/>
			</defs>
			<clipPath id="SVGID_7_">
				<use xlink:href="#SVGID_6_"  style="overflow:visible;"/>
			</clipPath>
			<g class="st5">
				<polygon class="st6" points="0,500 237.99,500 348.44,389.55 348.44,306.84 151.56,306.84 0,46.88 				"/>
				
					<linearGradient id="SVGID_8_" gradientUnits="userSpaceOnUse" x1="1471.95" y1="-2089.458" x2="809.0763" y2="-1701.1824" gradientTransform="matrix(0.25 0 0 -0.25 -75.75 -77.75)">
					<stop  offset="0" style="stop-color:#055524;stop-opacity:0.4"/>
					<stop  offset="0.33" style="stop-color:#055524;stop-opacity:0"/>
				</linearGradient>
				<polygon class="st7" points="0,500 237.99,500 348.44,389.55 348.44,306.84 151.56,306.84 0,46.88 				"/>
			</g>
		</g>
	</g>
	<g>
		<g>
			<defs>
				<circle id="SVGID_9_" cx="250" cy="250" r="250"/>
			</defs>
			<clipPath id="SVGID_10_">
				<use xlink:href="#SVGID_9_"  style="overflow:visible;"/>
			</clipPath>
			<g class="st8">
				<polygon class="st9" points="346.19,310.55 343.75,309.28 234.67,500 237.99,500 346.19,310.64 				"/>
			</g>
		</g>
	</g>
	<g>
		<g>
			<defs>
				<circle id="SVGID_11_" cx="250" cy="250" r="250"/>
			</defs>
			<clipPath id="SVGID_12_">
				<use xlink:href="#SVGID_11_"  style="overflow:visible;"/>
			</clipPath>
			<g class="st10">
				<g>
					<g>
						<defs>
							<polygon id="SVGID_13_" points="0,500 237.99,500 348.44,389.55 348.44,306.84 151.56,306.84 0,46.88 							"/>
						</defs>
						<clipPath id="SVGID_14_">
							<use xlink:href="#SVGID_13_"  style="overflow:visible;"/>
						</clipPath>
						<g class="st11">
							<polygon class="st12" points="250,136.43 348.44,306.84 237.99,500 500,500 500,136.43 							"/>
							
								<linearGradient id="SVGID_15_" gradientUnits="userSpaceOnUse" x1="1596.7631" y1="-786.0643" x2="1763.7172" y2="-1517.0414" gradientTransform="matrix(0.25 0 0 -0.25 -75.75 -77.75)">
								<stop  offset="0" style="stop-color:#EA6100;stop-opacity:0.3"/>
								<stop  offset="0.66" style="stop-color:#EA6100;stop-opacity:0"/>
							</linearGradient>
							<polygon class="st13" points="250,136.43 348.44,306.84 237.99,500 500,500 500,136.43 							"/>
						</g>
					</g>
				</g>
				<g>
					<g>
						<defs>
							<circle id="SVGID_16_" cx="250" cy="250" r="250"/>
						</defs>
						<clipPath id="SVGID_17_">
							<use xlink:href="#SVGID_16_"  style="overflow:visible;"/>
						</clipPath>
						<g class="st14">
							<polygon class="st12" points="250,136.43 348.44,306.84 237.99,500 500,500 500,136.43 							"/>
							
								<linearGradient id="SVGID_18_" gradientUnits="userSpaceOnUse" x1="1596.7631" y1="-786.0643" x2="1763.7172" y2="-1517.0414" gradientTransform="matrix(0.25 0 0 -0.25 -75.75 -77.75)">
								<stop  offset="0" style="stop-color:#EA6100;stop-opacity:0.3"/>
								<stop  offset="0.66" style="stop-color:#EA6100;stop-opacity:0"/>
							</linearGradient>
							<polygon class="st15" points="250,136.43 348.44,306.84 237.99,500 500,500 500,136.43 							"/>
						</g>
					</g>
				</g>
				<g>
					<g>
						<defs>
							<circle id="SVGID_19_" cx="250" cy="250" r="250"/>
						</defs>
						<clipPath id="SVGID_20_">
							<use xlink:href="#SVGID_19_"  style="overflow:visible;"/>
						</clipPath>
						<g class="st16">
							<g>
								<g>
									<defs>
										<polygon id="SVGID_21_" points="250,136.43 348.44,306.84 237.99,500 500,500 500,136.43 										"/>
									</defs>
									<clipPath id="SVGID_22_">
										<use xlink:href="#SVGID_21_"  style="overflow:visible;"/>
									</clipPath>
									<g class="st17">
										<polygon class="st1" points="39.75,0 39.75,306.84 151.56,306.84 250,136.43 500,136.43 500,0 										"/>
										
											<linearGradient id="SVGID_23_" gradientUnits="userSpaceOnUse" x1="545.5716" y1="-1072.7809" x2="1142.1233" y2="-724.2751" gradientTransform="matrix(0.25 0 0 -0.25 -75.75 -77.75)">
											<stop  offset="0" style="stop-color:#A52714;stop-opacity:0.6"/>
											<stop  offset="0.66" style="stop-color:#A52714;stop-opacity:0"/>
										</linearGradient>
										<polygon class="st18" points="39.75,0 39.75,306.84 151.56,306.84 250,136.43 500,136.43 500,0 										"/>
									</g>
								</g>
							</g>
							<g>
								<g>
									<defs>
										<circle id="SVGID_24_" cx="250" cy="250" r="250"/>
									</defs>
									<clipPath id="SVGID_25_">
										<use xlink:href="#SVGID_24_"  style="overflow:visible;"/>
									</clipPath>
									<g class="st19">
										
											<radialGradient id="SVGID_26_" cx="1835.5518" cy="-855.885" r="955.4598" gradientTransform="matrix(0.25 0 0 -0.25 -219.75 -77.75)" gradientUnits="userSpaceOnUse">
											<stop  offset="0" style="stop-color:#3E2723;stop-opacity:0.2"/>
											<stop  offset="1" style="stop-color:#3E2723;stop-opacity:0"/>
										</radialGradient>
										<polygon class="st20" points="250,136.43 250,195.9 472.66,136.43 										"/>
									</g>
								</g>
							</g>
							<g>
								<g>
									<defs>
										<circle id="SVGID_27_" cx="250" cy="250" r="250"/>
									</defs>
									<clipPath id="SVGID_28_">
										<use xlink:href="#SVGID_27_"  style="overflow:visible;"/>
									</clipPath>
									<g class="st21">
										<g>
											<g>
												<defs>
													<polygon id="SVGID_29_" points="39.75,0 39.75,114.55 151.56,306.84 250,136.43 500,136.43 500,0 													"/>
												</defs>
												<clipPath id="SVGID_30_">
													<use xlink:href="#SVGID_29_"  style="overflow:visible;"/>
												</clipPath>
												<g class="st22">
													<polygon class="st6" points="0,500 237.99,500 348.44,389.55 348.44,306.84 151.56,306.84 0,46.88 													"/>
													
														<linearGradient id="SVGID_31_" gradientUnits="userSpaceOnUse" x1="1471.95" y1="-2089.458" x2="809.0763" y2="-1701.1824" gradientTransform="matrix(0.25 0 0 -0.25 -75.75 -77.75)">
														<stop  offset="0" style="stop-color:#055524;stop-opacity:0.4"/>
														<stop  offset="0.33" style="stop-color:#055524;stop-opacity:0"/>
													</linearGradient>
													<polygon class="st23" points="0,500 237.99,500 348.44,389.55 348.44,306.84 151.56,306.84 0,46.88 													"/>
												</g>
											</g>
										</g>
										<g>
											<g>
												<defs>
													<circle id="SVGID_32_" cx="250" cy="250" r="250"/>
												</defs>
												<clipPath id="SVGID_33_">
													<use xlink:href="#SVGID_32_"  style="overflow:visible;"/>
												</clipPath>
												<g class="st24">
													
														<radialGradient id="SVGID_34_" cx="3631.7815" cy="-26.7586" r="886.8391" gradientTransform="matrix(1 0 0 1 0 -86)" gradientUnits="userSpaceOnUse">
														<stop  offset="0" style="stop-color:#3E2723;stop-opacity:0.2"/>
														<stop  offset="1" style="stop-color:#3E2723;stop-opacity:0"/>
													</radialGradient>
													<polygon class="st25" points="39.75,114.94 202.34,277.54 151.56,306.84 													"/>
												</g>
											</g>
										</g>
										<g>
											<g>
												<defs>
													<circle id="SVGID_35_" cx="250" cy="250" r="250"/>
												</defs>
												<clipPath id="SVGID_36_">
													<use xlink:href="#SVGID_35_"  style="overflow:visible;"/>
												</clipPath>
												<g class="st26">
													
														<radialGradient id="SVGID_37_" cx="1877.2184" cy="-1312.5518" r="998.5058" gradientTransform="matrix(0.25 0 0 -0.25 -219.75 -77.75)" gradientUnits="userSpaceOnUse">
														<stop  offset="0" style="stop-color:#263238;stop-opacity:0.2"/>
														<stop  offset="1" style="stop-color:#263238;stop-opacity:0"/>
													</radialGradient>
													<polygon class="st27" points="238.18,499.71 297.66,277.54 348.44,306.84 													"/>
												</g>
											</g>
										</g>
										<g>
											<g>
												<defs>
													<circle id="SVGID_38_" cx="250" cy="250" r="250"/>
												</defs>
												<clipPath id="SVGID_39_">
													<use xlink:href="#SVGID_38_"  style="overflow:visible;"/>
												</clipPath>
												<g class="st28">
													<circle class="st29" cx="250" cy="250" r="113.57"/>
													<circle class="st30" cx="250" cy="250" r="90.92"/>
												</g>
											</g>
										</g>
										<g>
											<g>
												<defs>
													<circle id="SVGID_40_" cx="250" cy="250" r="250"/>
												</defs>
												<clipPath id="SVGID_41_">
													<use xlink:href="#SVGID_40_"  style="overflow:visible;"/>
												</clipPath>
												<g class="st31">
													<path class="st32" d="M250,133.5c-62.79,0-113.57,50.88-113.57,113.57c0,0,0,0,0,0.1V250
														c0-62.79,50.88-113.57,113.57-113.57l0,0h250v-2.83L250,133.5z"/>
													<path class="st33" d="M348.24,306.84c-31.25,54.3-100.68,72.95-154.98,41.7c-17.29-9.96-31.74-24.32-41.7-41.7l0,0
														L0,46.88v2.83l151.56,259.96l0,0c31.25,54.3,100.68,72.95,154.98,41.7c17.29-9.96,31.74-24.32,41.7-41.7l0,0V306.84
														L348.24,306.84z"/>
													<path class="st34" d="M252.83,136.43h-1.46c62.7,0,113.57,50.88,113.57,113.57s-50.88,113.57-113.57,113.57h1.46
														c62.79,0,113.67-50.88,113.67-113.67s-50.88-113.67-113.67-113.67L252.83,136.43L252.83,136.43z"/>
													<path class="st35" d="M349.41,310.55c15.92-27.64,19.43-60.64,9.77-91.02c8.3,29.39,4.39,60.84-10.94,87.21l0,0
														L237.99,500h3.32l108.2-189.36L349.41,310.55z"/>
												</g>
											</g>
										</g>
										<g>
											<g>
												<defs>
													<circle id="SVGID_42_" cx="250" cy="250" r="250"/>
												</defs>
												<clipPath id="SVGID_43_">
													<use xlink:href="#SVGID_42_"  style="overflow:visible;"/>
												</clipPath>
												<g class="st36">
													<path class="st35" d="M250,2.83c137.5,0,249.22,111.04,250,248.54c0-0.49,0-0.88,0-1.46C500,111.91,388.09,0,250,0
														S0,111.91,0,250c0,0.49,0,0.88,0,1.46C0.78,113.96,112.5,2.83,250,2.83z"/>
													<path class="st4" d="M250,497.17c137.5,0,249.22-111.04,250-248.54c0,0.49,0,0.88,0,1.46c0,138.09-111.91,250-250,250
														S0,388.09,0,250c0-0.49,0-0.88,0-1.46C0.78,386.04,112.5,497.17,250,497.17z"/>
												</g>
											</g>
										</g>
									</g>
								</g>
							</g>
							<rect x="-22.66" y="-22.66" class="st37" width="545.51" height="545.51"/>
						</g>
					</g>
				</g>
			</g>
		</g>
	</g>
	<g>
		<g>
			<defs>
				<circle id="SVGID_44_" cx="250" cy="250" r="250"/>
			</defs>
			<clipPath id="SVGID_45_">
				<use xlink:href="#SVGID_44_"  style="overflow:visible;"/>
			</clipPath>
			<g class="st38">
				<rect x="-8.4" y="291.5" class="st39" width="524.02" height="219.34"/>
			</g>
		</g>
	</g>
	<path class="st40" d="M161.04,410.94v-68.95h24.9c5.18-0.1,10.16,1.86,13.96,5.37c3.81,3.42,5.86,8.3,5.76,13.38
		c0.1,3.13-0.78,6.15-2.54,8.69c-1.66,2.54-4,4.49-6.74,5.76v0.39c3.32,1.07,6.25,3.03,8.4,5.76c2.15,2.83,3.32,6.25,3.32,9.86
		c0.2,5.37-2.05,10.55-6.05,14.06c-4,3.71-9.18,5.76-14.65,5.76h-26.37V410.94z M169.92,371.58h16.02c3.03,0.1,5.96-1.07,8.01-3.32
		c4-4,4-10.45,0-14.45c-1.95-2.15-4.79-3.42-7.71-3.32h-16.31V371.58z M169.92,402.44h17.77c3.13,0.1,6.15-1.17,8.3-3.52
		c1.95-2.05,3.13-4.88,3.13-7.71c0-6.35-5.18-11.52-11.52-11.52c-0.1,0-0.2,0-0.39,0h-17.29V402.44z"/>
	<path class="st40" d="M237.89,412.21c-6.54,0.2-12.79-2.44-17.29-7.13c-4.49-4.88-6.93-11.33-6.64-17.97
		c-0.1-6.54,2.15-12.79,6.54-17.68c4.1-4.88,10.16-7.62,16.5-7.42c6.35-0.29,12.4,2.25,16.8,6.84c4.39,5.08,6.64,11.62,6.25,18.26
		v1.66h-37.4c0,4.3,1.66,8.5,4.79,11.52c2.73,2.64,6.45,4.2,10.25,4.1c5.57,0.49,10.84-2.83,12.89-8.11l7.91,3.32
		c-1.56,3.71-4.2,6.93-7.62,9.18C247.07,411.23,242.48,412.5,237.89,412.21z M250.59,381.54c-0.29-2.93-1.56-5.66-3.71-7.71
		c-2.73-2.64-6.35-3.91-10.16-3.71c-3.13-0.1-6.15,1.07-8.5,3.13c-2.44,2.15-4.2,5.08-4.98,8.3L250.59,381.54z"/>
	<path class="st40" d="M287.11,411.43c-7.52,0.88-14.26-4.49-15.14-12.01c-0.1-1.07-0.1-2.05,0-3.13v-24.71h-8.3v-8.01h8.2v-14.45
		h8.89v14.45h11.52v8.11h-11.52v24.02c0,5.18,2.15,7.71,6.35,7.71c1.37,0.1,2.73-0.2,4-0.78l3.13,7.62
		C291.89,411.13,289.45,411.52,287.11,411.43z"/>
	<path class="st40" d="M314.65,412.21c-4.59,0.2-8.98-1.37-12.5-4.3c-3.32-2.83-5.27-7.13-5.08-11.52
		c-0.2-4.69,1.95-9.28,5.76-12.11c4.3-3.03,9.47-4.59,14.75-4.39c4.49-0.2,8.89,0.78,12.79,2.83v-1.37c0.1-3.13-1.17-6.25-3.52-8.3
		c-2.44-2.05-5.57-3.22-8.69-3.13c-2.44,0-4.88,0.59-6.93,1.86c-1.95,1.07-3.52,2.83-4.3,4.98l-8.11-3.42
		c1.37-3.13,3.61-5.86,6.45-7.81c3.71-2.54,8.2-3.81,12.7-3.61c5.47-0.2,10.84,1.66,15.04,5.27c4,3.91,6.15,9.28,5.76,14.84v28.71
		h-8.11v-6.84h-0.59C326.76,409.38,320.9,412.5,314.65,412.21z M316.11,404.1c3.71,0,7.32-1.46,9.96-4.1
		c2.83-2.44,4.39-5.96,4.39-9.67c-3.32-2.34-7.42-3.42-11.52-3.13c-3.52-0.29-6.93,0.78-9.67,2.83c-2.05,1.56-3.22,4-3.32,6.54
		c-0.1,2.34,0.98,4.49,3.03,5.76C311.13,403.71,313.57,404.3,316.11,404.1z"/>
</g>
</svg>
